<svg width="22" height="22" viewBox="0 0 22 22" fill="none" xmlns="http://www.w3.org/2000/svg">
<g clip-path="url(#clip0_225_2733)">
<path d="M22 11C22 17.0802 17.0794 22 11 22C4.91975 22 0 17.0794 0 11C0 4.91975 4.92059 0 11 0C17.0802 0 22 4.92059 22 11Z" fill="#4CB944"/>
<path d="M15.4768 9.16722C15.8125 8.83169 15.8125 8.28753 15.4768 7.95184C15.1413 7.61631 14.5971 7.61631 14.2614 7.95184L9.10384 13.1096L6.96698 10.9727C6.63145 10.6371 6.0873 10.6371 5.75177 10.9727C5.41608 11.3083 5.41608 11.8524 5.75177 12.188L8.49623 14.9326C8.83192 15.2681 9.37592 15.2681 9.71161 14.9326L15.4768 9.16722Z" fill="white"/>
</g>
<defs>
<clipPath id="clip0_225_2733">
<rect width="22" height="22" fill="white"/>
</clipPath>
</defs>
</svg>
