<svg width="98" height="20" viewBox="0 0 98 20" fill="none" xmlns="http://www.w3.org/2000/svg">
<path d="M0 0H97.15V12C97.15 16.4183 93.5683 20 89.15 20H8.00001C3.58173 20 0 16.4183 0 12V0Z" fill="white"/>
<path d="M17.8021 8.00435H16.4726C16.4214 7.72026 16.3263 7.47026 16.1871 7.25435C16.0479 7.03844 15.8774 6.8552 15.6757 6.70463C15.474 6.55407 15.2481 6.44043 14.9981 6.36372C14.751 6.28702 14.4882 6.24867 14.2098 6.24867C13.7069 6.24867 13.2567 6.37509 12.8589 6.62793C12.464 6.88077 12.1515 7.25151 11.9214 7.74015C11.6942 8.22878 11.5805 8.82537 11.5805 9.52992C11.5805 10.2401 11.6942 10.8396 11.9214 11.3282C12.1515 11.8169 12.4655 12.1862 12.8632 12.4362C13.2609 12.6862 13.7084 12.8112 14.2055 12.8112C14.4811 12.8112 14.7425 12.7742 14.9896 12.7004C15.2396 12.6237 15.4655 12.5115 15.6672 12.3637C15.8689 12.216 16.0393 12.0356 16.1785 11.8225C16.3206 11.6066 16.4186 11.3595 16.4726 11.0811L17.8021 11.0853C17.7311 11.5143 17.5933 11.9092 17.3888 12.27C17.1871 12.6279 16.9271 12.9376 16.6089 13.199C16.2936 13.4575 15.9328 13.6578 15.5265 13.7998C15.1203 13.9419 14.6771 14.0129 14.197 14.0129C13.4413 14.0129 12.768 13.8339 12.1771 13.4759C11.5862 13.1151 11.1203 12.5995 10.7794 11.9291C10.4413 11.2586 10.2723 10.4589 10.2723 9.52992C10.2723 8.5981 10.4427 7.79838 10.7836 7.13077C11.1246 6.46032 11.5905 5.94611 12.1814 5.58816C12.7723 5.22736 13.4442 5.04696 14.197 5.04696C14.6601 5.04696 15.0919 5.11372 15.4925 5.24725C15.8959 5.37793 16.2581 5.57111 16.5791 5.82679C16.9001 6.07963 17.1657 6.38929 17.376 6.75577C17.5862 7.11941 17.7282 7.5356 17.8021 8.00435ZM22.1826 14.0257C21.5689 14.0257 21.0334 13.885 20.576 13.6038C20.1187 13.3225 19.7635 12.9291 19.5107 12.4234C19.2579 11.9177 19.1314 11.3268 19.1314 10.6507C19.1314 9.97168 19.2579 9.37793 19.5107 8.86941C19.7635 8.36088 20.1187 7.966 20.576 7.68475C21.0334 7.4035 21.5689 7.26287 22.1826 7.26287C22.7962 7.26287 23.3317 7.4035 23.7891 7.68475C24.2465 7.966 24.6016 8.36088 24.8545 8.86941C25.1073 9.37793 25.2337 9.97168 25.2337 10.6507C25.2337 11.3268 25.1073 11.9177 24.8545 12.4234C24.6016 12.9291 24.2465 13.3225 23.7891 13.6038C23.3317 13.885 22.7962 14.0257 22.1826 14.0257ZM22.1868 12.9561C22.5846 12.9561 22.9141 12.8509 23.1755 12.6407C23.4368 12.4305 23.63 12.1507 23.755 11.8012C23.8829 11.4518 23.9468 11.0669 23.9468 10.6464C23.9468 10.2288 23.8829 9.84526 23.755 9.49583C23.63 9.14355 23.4368 8.86088 23.1755 8.64782C22.9141 8.43475 22.5846 8.32821 22.1868 8.32821C21.7863 8.32821 21.4539 8.43475 21.1897 8.64782C20.9283 8.86088 20.7337 9.14355 20.6059 9.49583C20.4809 9.84526 20.4184 10.2288 20.4184 10.6464C20.4184 11.0669 20.4809 11.4518 20.6059 11.8012C20.7337 12.1507 20.9283 12.4305 21.1897 12.6407C21.4539 12.8509 21.7863 12.9561 22.1868 12.9561ZM26.8059 13.8936V7.3481H28.029V8.41344H28.1099C28.2463 8.05265 28.4693 7.7714 28.779 7.56969C29.0886 7.36515 29.4594 7.26287 29.8912 7.26287C30.3287 7.26287 30.6952 7.36515 30.9906 7.56969C31.2889 7.77424 31.5091 8.05549 31.6511 8.41344H31.7193C31.8755 8.06401 32.1241 7.7856 32.465 7.57821C32.8059 7.36799 33.2122 7.26287 33.6838 7.26287C34.2775 7.26287 34.7619 7.44895 35.1369 7.82111C35.5148 8.19327 35.7037 8.75435 35.7037 9.50435V13.8936H34.4295V9.62367C34.4295 9.18049 34.3088 8.85946 34.0673 8.6606C33.8258 8.46174 33.5375 8.3623 33.2023 8.3623C32.7875 8.3623 32.465 8.49015 32.2349 8.74583C32.0048 8.99867 31.8898 9.32395 31.8898 9.72168V13.8936H30.6199V9.5427C30.6199 9.18759 30.5091 8.90208 30.2875 8.68617C30.0659 8.47026 29.7775 8.3623 29.4224 8.3623C29.1809 8.3623 28.9579 8.42623 28.7534 8.55407C28.5517 8.67907 28.3883 8.85378 28.2633 9.07821C28.1412 9.30265 28.0801 9.56259 28.0801 9.85804V13.8936H26.8059ZM37.5614 13.8936V7.3481H38.8356V13.8936H37.5614ZM38.2049 6.33816C37.9833 6.33816 37.793 6.26429 37.6339 6.11657C37.4776 5.966 37.3995 5.78702 37.3995 5.57963C37.3995 5.36941 37.4776 5.19043 37.6339 5.0427C37.793 4.89213 37.9833 4.81685 38.2049 4.81685C38.4265 4.81685 38.6154 4.89213 38.7716 5.0427C38.9307 5.19043 39.0103 5.36941 39.0103 5.57963C39.0103 5.78702 38.9307 5.966 38.7716 6.11657C38.6154 6.26429 38.4265 6.33816 38.2049 6.33816ZM41.9738 10.0072V13.8936H40.6997V7.3481H41.9227V8.41344H42.0037C42.1542 8.06685 42.39 7.78844 42.7111 7.57821C43.0349 7.36799 43.4426 7.26287 43.9341 7.26287C44.3801 7.26287 44.7707 7.35662 45.1059 7.54412C45.4412 7.72878 45.7011 8.00435 45.8858 8.37083C46.0704 8.7373 46.1628 9.19043 46.1628 9.7302V13.8936H44.8886V9.88361C44.8886 9.40918 44.765 9.03844 44.5179 8.7714C44.2707 8.50151 43.9312 8.36657 43.4994 8.36657C43.204 8.36657 42.9412 8.43049 42.7111 8.55833C42.4838 8.68617 42.3034 8.87367 42.1699 9.12083C42.0392 9.36515 41.9738 9.6606 41.9738 10.0072ZM50.7659 16.4845C50.246 16.4845 49.7986 16.4163 49.4236 16.2799C49.0514 16.1436 48.7474 15.9632 48.5116 15.7387C48.2758 15.5143 48.0997 15.2686 47.9832 15.0015L49.0784 14.5498C49.1551 14.6748 49.2574 14.8069 49.3852 14.9461C49.5159 15.0882 49.692 15.2089 49.9136 15.3083C50.1381 15.4078 50.4264 15.4575 50.7787 15.4575C51.2616 15.4575 51.6608 15.3396 51.9761 15.1038C52.2915 14.8708 52.4491 14.4987 52.4491 13.9873V12.7004H52.3682C52.2915 12.8396 52.1807 12.9944 52.0358 13.1649C51.8937 13.3353 51.6977 13.483 51.4477 13.608C51.1977 13.733 50.8724 13.7955 50.4719 13.7955C49.9548 13.7955 49.4889 13.6748 49.0741 13.4333C48.6622 13.189 48.3355 12.8296 48.094 12.3552C47.8554 11.8779 47.7361 11.2913 47.7361 10.5953C47.7361 9.89924 47.854 9.30265 48.0898 8.80549C48.3284 8.30833 48.6551 7.92765 49.0699 7.66344C49.4846 7.3964 49.9548 7.26287 50.4804 7.26287C50.8866 7.26287 51.2148 7.33105 51.4648 7.46742C51.7148 7.60094 51.9094 7.75719 52.0486 7.93617C52.1906 8.11515 52.3 8.27282 52.3767 8.40918H52.4704V7.3481H53.719V14.0384C53.719 14.6009 53.5883 15.0626 53.327 15.4234C53.0656 15.7842 52.7119 16.0512 52.2659 16.2245C51.8227 16.3978 51.3227 16.4845 50.7659 16.4845ZM50.7531 12.7387C51.1196 12.7387 51.4292 12.6535 51.6821 12.483C51.9378 12.3097 52.1309 12.0626 52.2616 11.7416C52.3952 11.4177 52.4619 11.0299 52.4619 10.5782C52.4619 10.1379 52.3966 9.75009 52.2659 9.41486C52.1352 9.07963 51.9434 8.81827 51.6906 8.63077C51.4378 8.44043 51.1253 8.34526 50.7531 8.34526C50.3696 8.34526 50.05 8.44469 49.7943 8.64355C49.5386 8.83958 49.3454 9.10662 49.2148 9.44469C49.0869 9.78276 49.023 10.1606 49.023 10.5782C49.023 11.0072 49.0883 11.3836 49.219 11.7075C49.3497 12.0313 49.5429 12.2842 49.7986 12.466C50.0571 12.6478 50.3753 12.7387 50.7531 12.7387ZM63.7658 7.4589C63.7204 7.05549 63.5329 6.74299 63.2033 6.5214C62.8738 6.29696 62.459 6.18475 61.959 6.18475C61.601 6.18475 61.2914 6.24157 61.03 6.3552C60.7687 6.466 60.5655 6.61941 60.4206 6.81543C60.2786 7.00861 60.2076 7.22878 60.2076 7.47594C60.2076 7.68333 60.2559 7.8623 60.3525 8.01287C60.4519 8.16344 60.5812 8.28986 60.7403 8.39213C60.9022 8.49157 61.0755 8.57537 61.2601 8.64355C61.4448 8.7089 61.6224 8.76287 61.7928 8.80549L62.6451 9.02708C62.9235 9.09526 63.209 9.18759 63.5016 9.30407C63.7942 9.42054 64.0655 9.57395 64.3155 9.76429C64.5655 9.95463 64.7672 10.1904 64.9206 10.4717C65.0769 10.7529 65.155 11.0896 65.155 11.4816C65.155 11.9759 65.0272 12.4149 64.7715 12.7984C64.5187 13.1819 64.1508 13.4845 63.6678 13.7061C63.1877 13.9276 62.6067 14.0384 61.9249 14.0384C61.2715 14.0384 60.7062 13.9347 60.2289 13.7274C59.7516 13.52 59.378 13.2259 59.1081 12.8453C58.8383 12.4617 58.6891 12.0072 58.6607 11.4816H59.9817C60.0073 11.797 60.1096 12.0597 60.2885 12.27C60.4704 12.4774 60.7019 12.6322 60.9831 12.7345C61.2672 12.8339 61.5783 12.8836 61.9164 12.8836C62.2885 12.8836 62.6195 12.8254 62.9093 12.7089C63.2019 12.5896 63.432 12.4248 63.5996 12.2146C63.7672 12.0015 63.851 11.7529 63.851 11.4688C63.851 11.2103 63.7772 10.9987 63.6295 10.8339C63.4846 10.6691 63.2871 10.5328 63.0371 10.4248C62.79 10.3169 62.5101 10.2217 62.1976 10.1393L61.1664 9.85804C60.4675 9.6677 59.9135 9.38787 59.5045 9.01855C59.0982 8.64924 58.8951 8.1606 58.8951 7.55265C58.8951 7.0498 59.0314 6.61088 59.3042 6.23588C59.5769 5.86088 59.9462 5.56969 60.4121 5.3623C60.878 5.15208 61.4036 5.04696 61.9888 5.04696C62.5797 5.04696 63.101 5.15066 63.5528 5.35804C64.0073 5.56543 64.3653 5.85094 64.6266 6.21458C64.888 6.57537 65.0243 6.99015 65.0357 7.4589H63.7658ZM69.5334 14.0257C68.9197 14.0257 68.3842 13.885 67.9268 13.6038C67.4694 13.3225 67.1143 12.9291 66.8615 12.4234C66.6086 11.9177 66.4822 11.3268 66.4822 10.6507C66.4822 9.97168 66.6086 9.37793 66.8615 8.86941C67.1143 8.36088 67.4694 7.966 67.9268 7.68475C68.3842 7.4035 68.9197 7.26287 69.5334 7.26287C70.147 7.26287 70.6825 7.4035 71.1399 7.68475C71.5973 7.966 71.9524 8.36088 72.2052 8.86941C72.4581 9.37793 72.5845 9.97168 72.5845 10.6507C72.5845 11.3268 72.4581 11.9177 72.2052 12.4234C71.9524 12.9291 71.5973 13.3225 71.1399 13.6038C70.6825 13.885 70.147 14.0257 69.5334 14.0257ZM69.5376 12.9561C69.9354 12.9561 70.2649 12.8509 70.5263 12.6407C70.7876 12.4305 70.9808 12.1507 71.1058 11.8012C71.2336 11.4518 71.2976 11.0669 71.2976 10.6464C71.2976 10.2288 71.2336 9.84526 71.1058 9.49583C70.9808 9.14355 70.7876 8.86088 70.5263 8.64782C70.2649 8.43475 69.9354 8.32821 69.5376 8.32821C69.1371 8.32821 68.8047 8.43475 68.5405 8.64782C68.2791 8.86088 68.0845 9.14355 67.9567 9.49583C67.8317 9.84526 67.7692 10.2288 67.7692 10.6464C67.7692 11.0669 67.8317 11.4518 67.9567 11.8012C68.0845 12.1507 68.2791 12.4305 68.5405 12.6407C68.8047 12.8509 69.1371 12.9561 69.5376 12.9561ZM76.9138 14.0257C76.3002 14.0257 75.7647 13.885 75.3073 13.6038C74.8499 13.3225 74.4948 12.9291 74.242 12.4234C73.9891 11.9177 73.8627 11.3268 73.8627 10.6507C73.8627 9.97168 73.9891 9.37793 74.242 8.86941C74.4948 8.36088 74.8499 7.966 75.3073 7.68475C75.7647 7.4035 76.3002 7.26287 76.9138 7.26287C77.5275 7.26287 78.063 7.4035 78.5204 7.68475C78.9778 7.966 79.3329 8.36088 79.5857 8.86941C79.8385 9.37793 79.965 9.97168 79.965 10.6507C79.965 11.3268 79.8385 11.9177 79.5857 12.4234C79.3329 12.9291 78.9778 13.3225 78.5204 13.6038C78.063 13.885 77.5275 14.0257 76.9138 14.0257ZM76.9181 12.9561C77.3158 12.9561 77.6454 12.8509 77.9067 12.6407C78.1681 12.4305 78.3613 12.1507 78.4863 11.8012C78.6141 11.4518 78.678 11.0669 78.678 10.6464C78.678 10.2288 78.6141 9.84526 78.4863 9.49583C78.3613 9.14355 78.1681 8.86088 77.9067 8.64782C77.6454 8.43475 77.3158 8.32821 76.9181 8.32821C76.5175 8.32821 76.1851 8.43475 75.9209 8.64782C75.6596 8.86088 75.465 9.14355 75.3371 9.49583C75.2121 9.84526 75.1496 10.2288 75.1496 10.6464C75.1496 11.0669 75.2121 11.4518 75.3371 11.8012C75.465 12.1507 75.6596 12.4305 75.9209 12.6407C76.1851 12.8509 76.5175 12.9561 76.9181 12.9561ZM82.8113 10.0072V13.8936H81.5372V7.3481H82.7602V8.41344H82.8412C82.9917 8.06685 83.2275 7.78844 83.5486 7.57821C83.8724 7.36799 84.2801 7.26287 84.7716 7.26287C85.2176 7.26287 85.6082 7.35662 85.9434 7.54412C86.2787 7.72878 86.5386 8.00435 86.7233 8.37083C86.9079 8.7373 87.0003 9.19043 87.0003 9.7302V13.8936H85.7261V9.88361C85.7261 9.40918 85.6025 9.03844 85.3554 8.7714C85.1082 8.50151 84.7687 8.36657 84.3369 8.36657C84.0415 8.36657 83.7787 8.43049 83.5486 8.55833C83.3213 8.68617 83.1409 8.87367 83.0074 9.12083C82.8767 9.36515 82.8113 9.6606 82.8113 10.0072Z" fill="black"/>
</svg>
